<?xml version="1.0" encoding="UTF-8" standalone="no"?>
<svg
   xmlns:dc="http://purl.org/dc/elements/1.1/"
   xmlns:cc="http://creativecommons.org/ns#"
   xmlns:rdf="http://www.w3.org/1999/02/22-rdf-syntax-ns#"
   xmlns:svg="http://www.w3.org/2000/svg"
   xmlns="http://www.w3.org/2000/svg"
   viewBox="0 0 486.66623 259.14798"
   height="259.14798"
   width="486.66623"
   xml:space="preserve"
   id="svg2"
   version="1.1"><metadata
     id="metadata8"><rdf:RDF><cc:Work
         rdf:about=""><dc:format>image/svg+xml</dc:format><dc:type
           rdf:resource="http://purl.org/dc/dcmitype/StillImage" /></cc:Work></rdf:RDF></metadata><defs
     id="defs6" /><g
     transform="matrix(1.3333333,0,0,-1.3333333,-9.0840345e-5,259.14799)"
     id="g10"><g
       transform="scale(0.1)"
       id="g12"><path
         id="path14"
         style="fill:#264697;fill-opacity:1;fill-rule:nonzero;stroke:none"
         d="m 1826.46,1943.61 h 94.61 l 90.68,-3.94 c 2184.36,-170.51 2184.3,-1765.221 0,-1935.72859 L 1921.07,0 H 1731.84 C 1182.66,7.21875 217.68,224.449 20.8203,823.961 l -11.82421,47.32 -7.88671,51.25 C -37.7227,1571.51 953.141,1885.46 1459.81,1923.9 l 181.35,15.77 90.68,3.94 h 94.62" /><path
         id="path16"
         style="fill:#ffffff;fill-opacity:1;fill-rule:nonzero;stroke:none"
         d="m 1826.46,1860.82 h 86.72 l 86.74,-3.94 c 2055.45,-153.04 2055.45,-1620.208 0,-1770.1495 l -86.74,-3.9414 H 1739.72 C 1234.3,84.6914 314.004,283.91 127.266,835.789 l -11.825,43.371 -3.949,47.301 C 68.0664,1525.78 1020.16,1805.1 1479.52,1845.05 l 86.74,7.89 86.73,3.94 86.73,3.94 h 86.74" /><path
         id="path18"
         style="fill:#264697;fill-opacity:1;fill-rule:nonzero;stroke:none"
         d="m 1826.46,1750.43 82.79,-3.94 h 82.78 c 1915.18,-141.53 1915.76,-1410.541 0,-1549.369 l -82.78,-3.953 H 1743.66 C 1301.12,196.531 410.859,364.539 241.598,851.559 l -11.828,39.421 -3.942,39.43 c -39.887,541.1 876.402,770.61 1277.342,804.25 l 78.85,3.95 78.85,7.88 h 82.79 l 82.8,3.94" /><path
         id="path20"
         style="fill:#264697;fill-opacity:1;fill-rule:nonzero;stroke:none"
         d="m 1826.46,1785.91 h 82.79 l 82.78,-3.94 c 1957.42,-138.64 1957.49,-1483.591 0,-1620.329 l -82.78,-3.95 H 1743.66 C 1284.83,156.969 376.953,340.68 210.059,847.609 l -11.825,39.43 -7.886,43.371 c -23.723,565.27 875.222,802.61 1304.942,839.73 l 82.79,7.89 82.79,3.94 82.79,3.94 h 82.8" /><path
         id="path22"
         style="fill:#ffffff;fill-opacity:1;fill-rule:nonzero;stroke:none"
         d="m 513.621,642.609 v 654.441 h 193.18 L 951.234,910.699 V 1297.05 H 1128.64 V 642.609 H 939.402 L 691.035,1036.85 V 642.609 H 513.621" /><path
         id="path24"
         style="fill:#ffffff;fill-opacity:1;fill-rule:nonzero;stroke:none"
         d="m 1250.86,642.609 v 654.441 h 185.29 V 800.309 h 197.13 v -157.7 h -382.42" /><path
         id="path26"
         style="fill:#ffffff;fill-opacity:1;fill-rule:nonzero;stroke:none"
         d="m 1660.87,642.609 98.56,654.441 h 185.3 l 114.32,-398.179 118.27,398.179 h 185.3 l 98.57,-654.441 h -181.36 l -47.31,378.481 -114.33,-378.481 h -118.27 l -110.39,378.481 -51.25,-378.481 h -177.41" /><path
         id="path28"
         style="fill:#ffffff;fill-opacity:1;fill-rule:nonzero;stroke:none"
         d="m 2532.15,642.609 v 654.441 h 185.29 v -275.96 l 201.07,275.96 h 216.83 L 2883.03,981.66 3143.22,642.609 H 2910.63 L 2717.44,922.531 V 642.609" /></g></g></svg>